<?xml version="1.0" encoding="utf-8"?>
<!-- Generator: Adobe Illustrator 19.0.1, SVG Export Plug-In . SVG Version: 6.00 Build 0)  -->
<svg version="1.1" xmlns="http://www.w3.org/2000/svg" xmlns:xlink="http://www.w3.org/1999/xlink" x="0px" y="0px"
	 viewBox="0 0 3132.3 225.3" style="enable-background:new 0 0 3132.3 225.3;" xml:space="preserve">
<style type="text/css">
	.st0{fill:#5E7C76;}
</style>
<g id="divider">
	<g>
		<g>
			<path class="st0" d="M1595.7,168.3c-18.4,9.8-40.6,9.8-59,0l-28,28c34.5,23.8,80.5,23.8,115,0L1595.7,168.3z"/>
			<path class="st0" d="M1621.8,83.1c9.8,18.4,9.8,40.6,0,59l28,28c23.8-34.5,23.8-80.5,0-115L1621.8,83.1z"/>
		</g>
		<g>
			<path class="st0" d="M1482.5,55.1c-23.8,34.5-23.8,80.5,0,115l28-28c-9.8-18.4-9.8-40.6,0-59L1482.5,55.1z"/>
			<path class="st0" d="M1508.7,29l28,28c18.4-9.8,40.6-9.8,59,0l28-28C1589.1,5.2,1543.2,5.2,1508.7,29z"/>
		</g>
	</g>
</g>
<g id="Layer_2">
</g>
<g id="Layer_3">
	<g>
		<polygon class="st0" points="544.9,79.6 434.7,79.6 480.9,145.6 591.1,145.6 		"/>
		<polygon class="st0" points="708.9,79.6 598.6,79.6 644.8,145.6 755.1,145.6 		"/>
		<polygon class="st0" points="152.9,145.6 263.2,145.6 217,79.6 106.7,79.6 		"/>
		<polygon class="st0" points="381,79.6 270.7,79.6 316.9,145.6 427.2,145.6 		"/>
		<polygon class="st0" points="1200.8,79.6 1090.5,79.6 1136.7,145.6 1247,145.6 		"/>
		<polygon class="st0" points="53,79.6 0,79.6 0,145.6 99.2,145.6 		"/>
		<polygon class="st0" points="1254.5,79.6 1300.7,145.6 1371.1,145.6 1371.1,79.6 		"/>
		<polygon class="st0" points="872.9,79.6 762.6,79.6 808.8,145.6 919,145.6 		"/>
		<polygon class="st0" points="1036.8,79.6 926.6,79.6 972.7,145.6 1083,145.6 		"/>
	</g>
	<g>
		<polygon class="st0" points="2539.1,79.6 2428.9,79.6 2382.7,145.6 2492.9,145.6 		"/>
		<polygon class="st0" points="2375.2,79.6 2264.9,79.6 2218.7,145.6 2329,145.6 		"/>
		<polygon class="st0" points="1890.8,145.6 2001,145.6 2047.2,79.6 1937,79.6 		"/>
		<polygon class="st0" points="2211.2,79.6 2100.9,79.6 2054.8,145.6 2165,145.6 		"/>
		<polygon class="st0" points="2703.1,79.6 2592.8,79.6 2546.6,145.6 2656.9,145.6 		"/>
		<polygon class="st0" points="1883.3,79.6 1761.2,79.6 1761.2,145.6 1837.1,145.6 		"/>
		<polygon class="st0" points="3084.7,79.6 3038.5,145.6 3132.3,145.6 3132.3,79.6 		"/>
		<polygon class="st0" points="2867,79.6 2756.8,79.6 2710.6,145.6 2820.9,145.6 		"/>
		<polygon class="st0" points="3031,79.6 2920.7,79.6 2874.6,145.6 2984.8,145.6 		"/>
	</g>
	<g>
	</g>
	<g>
	</g>
	<g>
	</g>
	<g>
	</g>
	<g>
	</g>
	<g>
	</g>
</g>
</svg>
