<?xml version="1.0" encoding="utf-8"?>
<!-- Generator: Adobe Illustrator 19.0.1, SVG Export Plug-In . SVG Version: 6.00 Build 0)  -->
<svg version="1.1" id="footprints" xmlns="http://www.w3.org/2000/svg" xmlns:xlink="http://www.w3.org/1999/xlink" x="0px" y="0px"
	 viewBox="26 284 664 226" style="enable-background:new 26 284 664 226;" xml:space="preserve">
<style type="text/css">
	.st0{opacity:0.5;}
	.st1{fill:#5E7C76;}
</style>
<g class="st0">
	<path class="st1" d="M655.5,359.9c-9.3,2.3-17.4,1.3-25-3.3c-2.6-1.6-5.4-2-8.4-2.2c-5.1-0.3-9.3-2.1-11.8-6.9
		c-1.5-2.9-0.5-6.5,2.2-8.4c3.8-2.7,8-3.1,12.1-1.3c5.2,2.2,10,1.7,15.1-0.4c7.9-3.3,16.1-3.1,23.8,0.1c5.2,2.2,8.8,6.7,6.2,12.9
		c-1.4,3.3-4.3,5.3-7.4,6.9C660,358.6,657.5,359.6,655.5,359.9z"/>
	<path class="st1" d="M582.1,334.7c-1.9,0.5-3.9,1-5.9,1c-4.4,0.1-7.9,2.1-10.7,5.5c-2.5,3-5.7,4.9-9.7,5.2c-5.5,0.4-9-3.6-7.9-9
		c0.8-3.9,3.2-6.9,6.6-8.8c3.6-2,6.6-4.7,8.7-8.3c2.9-4.9,7.5-7.9,12.6-10.1c6-2.7,12.3-3.7,18.8-2.1c7.7,1.9,10.1,9.1,5.5,15.5
		c-3.9,5.3-9.3,8.4-15.4,10.5C583.9,334.3,583,334.4,582.1,334.7z"/>
	<path class="st1" d="M530.8,390c-9.3,2.3-17.4,1.3-25-3.3c-2.6-1.6-5.4-2-8.4-2.2c-5.1-0.3-9.3-2.1-11.8-6.9
		c-1.5-2.9-0.5-6.5,2.2-8.4c3.8-2.7,8-3.1,12.1-1.3c5.2,2.2,10,1.7,15.1-0.4c7.9-3.3,16.1-3.1,23.8,0.1c5.2,2.2,8.8,6.7,6.2,12.9
		c-1.4,3.3-4.3,5.3-7.4,6.9C535.2,388.7,532.7,389.7,530.8,390z"/>
	<path class="st1" d="M457.3,364.8c-1.9,0.5-3.9,1-5.9,1c-4.4,0.1-7.9,2.1-10.7,5.5c-2.5,3-5.7,4.9-9.7,5.2c-5.5,0.4-9-3.6-7.9-9
		c0.8-3.9,3.2-6.9,6.6-8.8c3.6-2,6.6-4.7,8.7-8.3c2.9-4.9,7.5-7.9,12.6-10.1c6-2.7,12.3-3.7,18.8-2.1c7.7,1.9,10.1,9.1,5.5,15.5
		c-3.9,5.3-9.3,8.4-15.4,10.5C459.1,364.4,458.2,364.5,457.3,364.8z"/>
	<path class="st1" d="M406,420c-9.3,2.3-17.4,1.3-25-3.3c-2.6-1.6-5.4-2-8.4-2.2c-5.1-0.3-9.3-2.1-11.8-6.9
		c-1.5-2.9-0.5-6.5,2.2-8.4c3.8-2.7,8-3.1,12.1-1.3c5.2,2.2,10,1.7,15.1-0.4c7.9-3.3,16.1-3.1,23.8,0.1c5.2,2.2,8.8,6.7,6.2,12.9
		c-1.4,3.3-4.3,5.3-7.4,6.9C410.4,418.8,408,419.8,406,420z"/>
	<path class="st1" d="M332.5,394.9c-1.9,0.5-3.9,1-5.9,1c-4.4,0.1-7.9,2.1-10.7,5.5c-2.5,3-5.7,4.9-9.7,5.2c-5.5,0.4-9-3.6-7.9-9
		c0.8-3.9,3.2-6.9,6.6-8.8c3.6-2,6.6-4.7,8.7-8.3c2.9-4.9,7.5-7.9,12.6-10.1c6-2.7,12.3-3.7,18.8-2.1c7.7,1.9,10.1,9.1,5.5,15.5
		c-3.9,5.3-9.3,8.4-15.4,10.5C334.4,394.5,333.4,394.6,332.5,394.9z"/>
	<path class="st1" d="M281.2,450.1c-9.3,2.3-17.4,1.3-25-3.3c-2.6-1.6-5.4-2-8.4-2.2c-5.1-0.3-9.3-2.1-11.8-6.9
		c-1.5-2.9-0.5-6.5,2.2-8.4c3.8-2.7,8-3.1,12.1-1.3c5.2,2.2,10,1.7,15.1-0.4c7.9-3.3,16.1-3.1,23.8,0.1c5.2,2.2,8.8,6.7,6.2,12.9
		c-1.4,3.3-4.3,5.3-7.4,6.9C285.7,448.9,283.2,449.9,281.2,450.1z"/>
	<path class="st1" d="M207.8,425c-1.9,0.5-3.9,1-5.9,1c-4.4,0.1-7.9,2.1-10.7,5.5c-2.5,3-5.7,4.9-9.7,5.2c-5.5,0.4-9-3.6-7.9-9
		c0.8-3.9,3.2-6.9,6.6-8.8c3.6-2,6.6-4.7,8.7-8.3c2.9-4.9,7.5-7.9,12.6-10.1c6-2.7,12.3-3.7,18.8-2.1c7.7,1.9,10.1,9.1,5.5,15.5
		c-3.9,5.3-9.3,8.4-15.4,10.5C209.6,424.6,208.7,424.7,207.8,425z"/>
	<path class="st1" d="M156.4,480.2c-9.3,2.3-17.4,1.3-25-3.3c-2.6-1.6-5.4-2-8.4-2.2c-5.1-0.3-9.3-2.1-11.8-6.9
		c-1.5-2.9-0.5-6.5,2.2-8.4c3.8-2.7,8-3.1,12.1-1.3c5.2,2.2,10,1.7,15.1-0.4c7.9-3.3,16.1-3.1,23.8,0.1c5.2,2.2,8.8,6.7,6.2,12.9
		c-1.4,3.3-4.3,5.3-7.4,6.9C160.9,479,158.4,480,156.4,480.2z"/>
	<path class="st1" d="M83,455.1c-1.9,0.5-3.9,1-5.9,1c-4.4,0.1-7.9,2.1-10.7,5.5c-2.5,3-5.7,4.9-9.7,5.2c-5.5,0.4-9-3.6-7.9-9
		c0.8-3.9,3.2-6.9,6.6-8.8c3.6-2,6.6-4.7,8.7-8.3c2.9-4.9,7.5-7.9,12.6-10.1c6-2.7,12.3-3.7,18.8-2.1c7.7,1.9,10.1,9.1,5.5,15.5
		c-3.9,5.3-9.3,8.4-15.4,10.5C84.8,454.7,83.9,454.8,83,455.1z"/>
</g>
</svg>
